{"title":"Spectre.2015.REAL.720P.HD-TS.x264.AC3.HQ.Hive-CM8","uid":12819914,"size":3659551084,"categoryP":"video","categoryS":"hd___movies","magnet":"?xt=urn:btih:5d895c40b6084083bc46ed0aa2953bb06a0f1205&amp;dn=Spectre.2015.REAL.720P.HD-TS.x264.AC3.HQ.Hive-CM8&amp;tr=udp%3A%2F%2Ftracker.leechers-paradise.org%3A6969&amp;tr=udp%3A%2F%2Fzer0day.ch%3A1337&amp;tr=udp%3A%2F%2Fopen.demonii.com%3A1337&amp;tr=udp%3A%2F%2Ftracker.coppersurfer.tk%3A6969&amp;tr=udp%3A%2F%2Fexodus.desync.com%3A6969","seeders":4,"leechers":4,"uploader":"makintos13","files":4,"time":1448280668,"description":"screens:\r\n \nhttp://imgmak.com/KCw \nhttp://imgmak.com/KCJ \nhttp://imgmak.com/KCW \nhttp://imgmak.com/KCd \nhttp://imgmak.com/KCs \nhttp://imgmak.com/KC4 \nhttp://imgmak.com/KC8 \nhttp://imgmak.com/KCL \nhttp://imgmak.com/KCX\r\n\r\n\r\nSpectre.2015.REAL.720P.HD-TS.x264.AC3.HQ.Hive-CM8\r\n\r\nThx Hive\r\n\r\nCM8 Doing It Right The First Time\r\n\r\nSources:\r\n\r\nVideo: Unmarked 720p Mandarin Telecine\r\nAudio: Sweet Line Big Thx to S4NDM4N\r\n\r\nNotes:\r\n\r\nmay be last on this one, but i only do quality stuff, and i dont sell you mic as line audio\r\nEncoded 1 week for you guys, a lot of time went into this\r\ntried playing with latino vid for 2 days, too dark, deleted\r\ntried playing with russian vid for 2 days, not good enough,deleted\r\ntried playing with 4 different mandarin Telecine with all kind of different watermarkings to merge to one good, were jerky deleted\r\n\r\nfinally got the good one, no kind of watermarkings, no floating one no constant ones, simply great\r\n\r\nEncode:\r\n\r\nvideo needed fixing brightness,contrast and a lot of fixing colours\r\nfound a very nice way, looks awesome now, pretty similar to my iron man 3 release\r\n\r\nsince the mandarin telecine came with mic audio and cpl groups sold it as line eventhough it clearly isnt i asked S4NDM4N to get me a real line\r\nfor this awesome release which we got so now all is perfect together\r\naudio is lipsynced to my video\r\n\r\nhardcoded original english subs for foreign parts only too, while i was at it-seen at last pic below\r\n\r\nthis will do me till retail, not even a web-dl is needed in this case\r\nenjoy\r\n\r\nVideo: 1280x624 @bitrate 3000-8000\r\nAudio: English Line Stereo 2.0\r\nSample: yes 2 included voice and action scene\r\n\r\nPS:\r\nguys cpl screeners are out you know where to find me\r\n&quot;the walk&quot; &quot;99 homes&quot; are hottest so far, but am taking any other too\r\n \nhttp://www.imdb.com/title/tt2379713/\r\n\r\nGeneral\r\nFormat: Matroska\r\nFormat version: Version 2\r\nFile size: 3.36 GiB\r\nDuration: 2h 28mn\r\nOverall bit rate mode: Variable\r\nOverall bit rate: 3 242 Kbps\r\nEncoded date: UTC 2015-11-22 17:54:10\r\nWriting application: mkvmerge v5.6.0 ('Kenya Kane') built on May 27 2012 16:44:04\r\nWriting library: libebml v1.2.3 + libmatroska v1.3.0\r\n\r\nVideo\r\nID: 1\r\nFormat: AVC\r\nFormat/Info: Advanced Video Codec\r\nFormat profile:   \r\nFormat settings, CABAC: Yes\r\nFormat settings, ReFrames: 3 frames\r\nFormat settings, GOP: M=4, N=33\r\nMuxing mode: Header stripping\r\nCodec ID: V_MPEG4/ISO/AVC\r\nDuration: 2h 28mn\r\nBit rate mode: Variable\r\nBit rate: 2 921 Kbps\r\nMaximum bit rate: 8 000 Kbps\r\nWidth: 1 280 pixels\r\nHeight: 624 pixels\r\nDisplay aspect ratio: 2.051\r\nFrame rate mode: Constant\r\nFrame rate: 23.976 fps\r\nStandard: NTSC\r\nColor space: YUV\r\nChroma subsampling: 4:2:0\r\nBit depth: 8 bits\r\nScan type: Progressive\r\nBits/(Pixel*Frame): 0.153\r\nStream size: 3.03 GiB (90%)\r\nLanguage: English\r\nDefault: Yes\r\nForced: No\r\nColor primaries: BT.709\r\nTransfer characteristics: BT.709\r\nMatrix coefficients: BT.709\r\nColor range: Limited\r\n\r\nAudio\r\nID: 2\r\nFormat: AC-3\r\nFormat/Info: Audio Coding 3\r\nMode extension: CM (complete main)\r\nFormat settings, Endianness: Big\r\nMuxing mode: Header stripping\r\nCodec ID: A_AC3\r\nDuration: 2h 28mn\r\nBit rate mode: Constant\r\nBit rate: 256 Kbps\r\nChannel(s): 2 channels\r\nChannel positions: Front: L R\r\nSampling rate: 48.0 KHz\r\nBit depth: 16 bits\r\nCompression mode: Lossy\r\nStream size: 272 MiB (8%)\r\nLanguage: English\r\nDefault: Yes\r\nForced: Yes","torrent":{"xt":"urn:btih:5d895c40b6084083bc46ed0aa2953bb06a0f1205","amp;dn":"Spectre.2015.REAL.720P.HD-TS.x264.AC3.HQ.Hive-CM8","amp;tr":["udp%3A%2F%2Ftracker.leechers-paradise.org%3A6969","udp%3A%2F%2Fzer0day.ch%3A1337","udp%3A%2F%2Fopen.demonii.com%3A1337","udp%3A%2F%2Ftracker.coppersurfer.tk%3A6969","udp%3A%2F%2Fexodus.desync.com%3A6969"],"infoHash":"5d895c40b6084083bc46ed0aa2953bb06a0f1205","infoHashBuffer":{"type":"Buffer","data":[93,137,92,64,182,8,64,131,188,70,237,10,162,149,59,176,106,15,18,5]},"announce":[],"urlList":[]}}